<svg aria-hidden="true" style="position: absolute; width: 0; height: 0; overflow: hidden;" version="1.1" xmlns="http://www.w3.org/2000/svg" xmlns:xlink="http://www.w3.org/1999/xlink">
<defs>
<symbol id="icon-film" viewBox="0 0 32 32">
<title>film</title>
<path d="M4 6v22h22v-22h-22zM8 26h-2v-2h2v2zM8 23h-2v-2h2v2zM8 20h-2v-2h2v2zM8 16h-2v-2h2v2zM8 13h-2v-2h2v2zM8 10h-2v-2h2v2zM20 26h-10v-8h10v8zM20 16h-10v-8h10v8zM24 26h-2v-2h2v2zM24 23h-2v-2h2v2zM24 20h-2v-2h2v2zM24 16h-2v-2h2v2zM24 13h-2v-2h2v2zM24 10h-2v-2h2v2z"></path>
</symbol>
<symbol id="icon-checkmark" viewBox="0 0 32 32">
<title>checkmark</title>
<path d="M16 3c-7.18 0-13 5.82-13 13s5.82 13 13 13 13-5.82 13-13-5.82-13-13-13zM23.258 12.307l-9.486 9.485c-0.238 0.237-0.623 0.237-0.861 0l-0.191-0.191-0.001 0.001-5.219-5.256c-0.238-0.238-0.238-0.624 0-0.862l1.294-1.293c0.238-0.238 0.624-0.238 0.862 0l3.689 3.716 7.756-7.756c0.238-0.238 0.624-0.238 0.862 0l1.294 1.294c0.239 0.237 0.239 0.623 0.001 0.862z"></path>
</symbol>
<symbol id="icon-cancel" viewBox="0 0 32 32">
<title>cancel</title>
<path d="M16 29c-7.18 0-13-5.82-13-13s5.82-13 13-13 13 5.82 13 13-5.82 13-13 13zM21.961 12.209c0.244-0.244 0.244-0.641 0-0.885l-1.328-1.327c-0.244-0.244-0.641-0.244-0.885 0l-3.761 3.761-3.761-3.761c-0.244-0.244-0.641-0.244-0.885 0l-1.328 1.327c-0.244 0.244-0.244 0.641 0 0.885l3.762 3.762-3.762 3.76c-0.244 0.244-0.244 0.641 0 0.885l1.328 1.328c0.244 0.244 0.641 0.244 0.885 0l3.761-3.762 3.761 3.762c0.244 0.244 0.641 0.244 0.885 0l1.328-1.328c0.244-0.244 0.244-0.641 0-0.885l-3.762-3.76 3.762-3.762z"></path>
</symbol>
<symbol id="icon-pictures" viewBox="0 0 33 32">
<title>pictures</title>
<path d="M26.604 29.587l-2.624-0.72-0.006-7.258 2.51 0.706 3.619-13.509-18.332-4.912-1.208 4.506h-2.068l1.863-6.952 22.193 5.946-5.947 22.193zM23.039 32h-23.039v-22.977h23.039v22.977zM21.041 11.021h-19.043v13.985h19.043v-13.985zM7.849 20.993l2.283-3.692 2.283 2.301 3.139-4.727 3.283 8.134h-14.556l1.855-3.71 1.713 1.694zM6.484 17.086c-0.828 0-1.499-0.67-1.499-1.498s0.671-1.498 1.499-1.498 1.498 0.67 1.498 1.498-0.67 1.498-1.498 1.498z"></path>
</symbol>
<symbol id="icon-checkmark1" viewBox="0 0 32 32">
<title>checkmark1</title>
<path d="M28.998 8.531l-2.134-2.134c-0.394-0.393-1.030-0.393-1.423 0l-12.795 12.795-6.086-6.13c-0.393-0.393-1.029-0.393-1.423 0l-2.134 2.134c-0.393 0.394-0.393 1.030 0 1.423l8.924 8.984c0.393 0.393 1.030 0.393 1.423 0l15.648-15.649c0.393-0.392 0.393-1.030 0-1.423z"></path>
</symbol>
<symbol id="icon-cancel1" viewBox="0 0 32 32">
<title>cancel1</title>
<path d="M19.587 16.001l6.096 6.096c0.396 0.396 0.396 1.039 0 1.435l-2.151 2.151c-0.396 0.396-1.038 0.396-1.435 0l-6.097-6.096-6.097 6.096c-0.396 0.396-1.038 0.396-1.434 0l-2.152-2.151c-0.396-0.396-0.396-1.038 0-1.435l6.097-6.096-6.097-6.097c-0.396-0.396-0.396-1.039 0-1.435l2.153-2.151c0.396-0.396 1.038-0.396 1.434 0l6.096 6.097 6.097-6.097c0.396-0.396 1.038-0.396 1.435 0l2.151 2.152c0.396 0.396 0.396 1.038 0 1.435l-6.096 6.096z"></path>
</symbol>
<symbol id="icon-trashcan" viewBox="0 0 32 32">
<title>trashcan</title>
<path d="M8 26c0 1.656 1.343 3 3 3h10c1.656 0 3-1.344 3-3l2-16h-20l2 16zM19 13h2v13h-2v-13zM15 13h2v13h-2v-13zM11 13h2v13h-2v-13zM25.5 6h-6.5c0 0-0.448-2-1-2h-4c-0.553 0-1 2-1 2h-6.5c-0.829 0-1.5 0.671-1.5 1.5s0 1.5 0 1.5h22c0 0 0-0.671 0-1.5s-0.672-1.5-1.5-1.5z"></path>
</symbol>
<symbol id="icon-locked" viewBox="0 0 32 32">
<title>locked</title>
<path d="M16 31c-5.247 0-9.5-4.254-9.5-9.5 0-3.41 1.802-6.391 4.5-8.067v-5.933c0-3.038 2.463-5.5 5.5-5.5s5.5 2.462 5.5 5.5v6.637c2.135 1.742 3.5 4.392 3.5 7.363 0 5.246-4.253 9.5-9.5 9.5zM20 7.5c0-1.933-1.566-3.5-3.5-3.5-1.933 0-3.5 1.567-3.5 3.5v4.991c0.944-0.314 1.95-0.491 3-0.491 1.432 0 2.783 0.325 4 0.892v-5.392zM16 13.5c-4.418 0-8 3.582-8 8s3.582 8 8 8 8-3.582 8-8-3.582-8-8-8zM16 29c-4.143 0-7.5-3.357-7.5-7.5s3.357-7.5 7.5-7.5c4.143 0 7.5 3.357 7.5 7.5s-3.357 7.5-7.5 7.5zM17.5 19.5c0-0.828-0.672-1.5-1.5-1.5s-1.5 0.672-1.5 1.5c0 0.711 0.504 1.277 1.167 1.434l-1.167 4.566h3.062l-1.314-4.551c0.705-0.121 1.252-0.709 1.252-1.449z"></path>
</symbol>
<symbol id="icon-unlocked" viewBox="0 0 32 32">
<title>unlocked</title>
<path d="M28 14v-6.5c0-1.933-1.567-3.5-3.5-3.5s-3.5 1.567-3.5 3.5v5.933c2.697 1.676 4.5 4.657 4.5 8.067 0 5.247-4.253 9.5-9.5 9.5s-9.5-4.253-9.5-9.499c0-5.247 4.253-9.5 9.5-9.5 1.050 0 2.056 0.177 3 0.491v-4.992c0-3.037 2.463-5.5 5.5-5.5s5.5 2.463 5.5 5.5v6.5h-2zM16 13.5c-4.418 0-8 3.582-8 8s3.582 7.999 8 7.999 8-3.581 8-7.999c0-4.418-3.582-8-8-8zM16 29c-4.143 0-7.5-3.357-7.5-7.499 0-4.144 3.357-7.501 7.5-7.501s7.5 3.357 7.5 7.501c0 4.142-3.357 7.499-7.5 7.499zM17.5 19.501c0-0.829-0.672-1.5-1.5-1.5s-1.5 0.671-1.5 1.5c0 0.709 0.504 1.277 1.167 1.432l-1.167 4.567h3.062l-1.314-4.55c0.705-0.123 1.252-0.709 1.252-1.449z"></path>
</symbol>
<symbol id="icon-pen" viewBox="0 0 32 32">
<title>pen</title>
<path d="M6.625 18.044l-3.263 9.936 4.361-4.377c-0.3-0.757-0.226-2.050 0.387-2.662 0.821-0.822 2.173-0.803 2.994 0.019s0.866 2.198 0.045 3.020c-0.625 0.625-1.998 0.661-2.764 0.337l-4.323 4.335 9.701-3.408 3.533-6.364-4.304-4.246-6.367 3.41zM22.981 3.349c0 0-6.011 6.010-6.938 6.938-0.929 0.928-1.414 4.419-1.414 4.419l2.695 2.696c0 0 3.403-0.486 4.375-1.459s6.938-6.938 6.938-6.938l-5.656-5.656z"></path>
</symbol>
<symbol id="icon-library" viewBox="0 0 32 32">
<title>library</title>
<path d="M3.425 13.953c0 0 24.137 0 24.173 0 0.583-0.255 0.557-0.802 0.011-1.165-0.547-0.365-12.119-8.718-12.119-8.718s-11.482 8.353-12.065 8.718c-0.582 0.363-0.619 0.91 0 1.165zM15.49 8.195c0.965 0 1.748 0.782 1.748 1.747s-0.783 1.748-1.748 1.748-1.747-0.783-1.747-1.748 0.782-1.747 1.747-1.747zM4.027 26.932h22.968v-0.977h-22.968v0.977zM9 24.936v-8.903h0.978v-1.103h-4.993v1.003h0.978v9.002h3.037zM17.030 24.936v-8.966h0.978v-0.978h-4.992v0.94h0.977v9.002h3.037zM3.030 28.93h24.963v-0.914h-24.963v0.914zM24.998 24.936v-8.966h0.978v-0.978h-4.993v0.94h0.979v9.002h3.036z"></path>
</symbol>
<symbol id="icon-pen1" viewBox="0 0 32 32">
<title>pen1</title>
<path d="M29.024 6.499l-2.467 2.467-3.523-3.523 2.467-2.467c0.973-0.973 2.551-0.973 3.523 0s0.973 2.55 0 3.523zM27.614 9.317c0.195-0.194 0.511-0.194 0.705 0 0.195 0.195 0.195 0.511 0 0.705l-9.16 9.161c-0.195 0.194-0.511 0.194-0.705 0s-0.194-0.51 0-0.704l5.99-5.99-4.934-4.934 2.114-2.113 4.933 4.933 1.057-1.058zM19.511 8.966l3.523 3.523-14.094 14.094-3.523-3.523 14.094-14.094zM2.246 29.754l2.466-5.989 3.523 3.523-5.989 2.466z"></path>
</symbol>
<symbol id="icon-rotate" viewBox="0 0 32 32">
<title>rotate</title>
<path d="M26.034 16.767l-4.090-4.090h2.396c-0.022-0.060-0.045-0.119-0.068-0.178-1.421-3.602-4.933-6.15-9.040-6.15-5.365 0-9.715 4.35-9.715 9.715s4.35 9.716 9.715 9.716c3.947 0 7.344-2.354 8.864-5.733 0.015-0.031 0.024-0.066 0.038-0.099l2.605 2.589c-0.017 0.030-0.029 0.064-0.047 0.096-0.004 0.007-0.008 0.014-0.012 0.020-2.299 3.972-6.594 6.643-11.513 6.643-7.34-0.002-13.292-5.954-13.292-13.296s5.952-13.294 13.294-13.294c6.138 0 11.303 4.158 12.833 9.812 0.015 0.052 0.019 0.107 0.032 0.159h2.091l-4.091 4.090z"></path>
</symbol>
<symbol id="icon-bookmark" viewBox="0 0 32 32">
<title>bookmark</title>
<path d="M15.476 19.461l-8.451 8.501v-22.924h16.951v22.924l-8.5-8.501z"></path>
</symbol>
<symbol id="icon-bookmark1" viewBox="0 0 32 32">
<title>bookmark1</title>
<path d="M25 29h-16v-22h7v9.125l3.541-2.688 3.459 2.688v-9.125h4v20c0 1.104-0.896 2-2 2zM19.541 12.125l-2.541 2v-8.125h5v8.125l-2.459-2zM6 5v1c0 0.552 0.448 1 1 1h1v22h-1c-1.104 0-2-0.896-2-2v-22c0-1.104 0.896-2 2-2h18c0.738 0 1.376 0.404 1.723 1h-19.723c-0.552 0-1 0.447-1 1z"></path>
</symbol>
<symbol id="icon-switch" viewBox="0 0 32 32">
<title>switch</title>
<path d="M15.5 31.062c-6.904 0-12.5-5.597-12.5-12.5 0-5.315 3.323-9.844 8-11.651v4.449c-2.399 1.503-4 4.162-4 7.202 0 4.694 3.806 8.5 8.5 8.5s8.5-3.806 8.5-8.5c0-2.596-1.166-4.915-3-6.475v-4.736c4.143 2.036 7 6.284 7 11.212 0 6.903-5.597 12.499-12.5 12.499zM16 17.062c-1.104 0-2-0.896-2-2v-11.124c0-1.104 0.896-2 2-2s2 0.896 2 2v11.125c0 1.104-0.896 1.999-2 1.999z"></path>
</symbol>
<symbol id="icon-chevron-left" viewBox="0 0 20 20">
<title>chevron-left</title>
<path d="M12.452 4.516c0.446 0.436 0.481 1.043 0 1.576l-3.747 3.908 3.747 3.908c0.481 0.533 0.446 1.141 0 1.574-0.445 0.436-1.197 0.408-1.615 0-0.418-0.406-4.502-4.695-4.502-4.695-0.223-0.217-0.335-0.502-0.335-0.787s0.112-0.57 0.335-0.789c0 0 4.084-4.287 4.502-4.695s1.17-0.436 1.615 0z"></path>
</symbol>
<symbol id="icon-chevron-right" viewBox="0 0 20 20">
<title>chevron-right</title>
<path d="M9.163 4.516c0.418 0.408 4.502 4.695 4.502 4.695 0.223 0.219 0.335 0.504 0.335 0.789s-0.112 0.57-0.335 0.787c0 0-4.084 4.289-4.502 4.695-0.418 0.408-1.17 0.436-1.615 0-0.446-0.434-0.481-1.041 0-1.574l3.747-3.908-3.747-3.908c-0.481-0.533-0.446-1.141 0-1.576s1.197-0.409 1.615 0z"></path>
</symbol>
<symbol id="icon-home" viewBox="0 0 20 20">
<title>home</title>
<path d="M18.672 11h-1.672v6c0 0.445-0.194 1-1 1h-4v-6h-4v6h-4c-0.806 0-1-0.555-1-1v-6h-1.672c-0.598 0-0.47-0.324-0.060-0.748l8.024-8.032c0.195-0.202 0.451-0.302 0.708-0.312 0.257 0.010 0.513 0.109 0.708 0.312l8.023 8.031c0.411 0.425 0.539 0.749-0.059 0.749z"></path>
</symbol>
<symbol id="icon-home1" viewBox="0 0 32 32">
<title>home1</title>
<path d="M32 18.451l-16-12.42-16 12.42v-5.064l16-12.42 16 12.42zM28 18v12h-8v-8h-8v8h-8v-12l12-9z"></path>
</symbol>
</defs>
</svg>
